# xmcd CD database file
#
# Track frame offsets:
#	150
#	19165
#	32710
#	51371
#
# Disc length: 932 seconds
#
# Revision: 1
# Processed by: cddbd v1.5.1PL0 Copyright (c) Steve Scherf et al.
# Submitted via: CDex 1.51
#
DISCID=2d03a204
DTITLE=ワライナキ - 涙雨
DYEAR=2005
DGENRE=JPop
TTITLE0=涙雨
TTITLE1=かけがえのないもの
TTITLE2=いつでもここから
TTITLE3=春愁 〜花曇〜
EXTD=YEAR: 2005
EXTT0=
EXTT1=
EXTT2=
EXTT3=
PLAYORDER=
